<svg xmlns="http://www.w3.org/2000/svg" width="28.175" height="28.175" viewBox="0 0 28.175 28.175"><defs><style>.a{fill:#87bbec;}</style></defs><path class="a" d="M24.86,1.657V0H23.2V1.657H18.231V0H16.573V1.657H11.6V0H9.944V1.657H4.972V0H3.315V1.657H0V28.175H28.175V1.657ZM3.315,3.315V4.972H4.972V3.315H9.944V4.972H11.6V3.315h4.972V4.972h1.657V3.315H23.2V4.972H24.86V3.315h1.657V6.629H1.657V3.315Zm9.944,4.972v4.972H8.287V8.287Zm6.629,0v4.972H14.916V8.287Zm-6.629,6.629v4.972H8.287V14.916Zm0,6.629v4.972H8.287V21.545Zm1.657,0h4.972v4.972H14.916Zm0-1.657V14.916h4.972v4.972Zm6.629-4.972h4.972v4.972H21.545Zm0-1.657V8.287h4.972v4.972ZM1.657,8.287H6.629v4.972H1.657Zm0,6.629H6.629v4.972H1.657Zm0,6.629H6.629v4.972H1.657Zm19.888,4.972V21.545h4.972v4.972Z"/><path class="a" d="M420,420h1.657v1.657H420Z" transform="translate(-396.797 -396.797)"/><path class="a" d="M300,420h1.657v1.657H300Z" transform="translate(-283.427 -396.797)"/><path class="a" d="M180,420h1.657v1.657H180Z" transform="translate(-170.056 -396.797)"/></svg>